<!DOCTYPE svg PUBLIC "-//W3C//DTD SVG 20010904//EN" "http://www.w3.org/TR/2001/REC-SVG-20010904/DTD/svg10.dtd">
<svg version="1.0" xmlns="http://www.w3.org/2000/svg" width="128px" height="128px" viewBox="0 0 1280 1280" preserveAspectRatio="xMidYMid meet">
<g id="layer101" fill="#000000" stroke="none">
 <path d="M480 1250 c-212 -33 -397 -193 -460 -399 -26 -81 -27 -243 -4 -322 56 -189 214 -345 404 -400 25 -7 92 -13 150 -12 111 0 196 21 268 65 l33 20 -5 -23 c-21 -91 -24 -114 -16 -130 21 -38 75 -29 85 14 19 82 45 224 45 248 0 15 -5 31 -12 35 -7 4 -66 20 -133 35 -107 25 -122 26 -142 13 -13 -8 -23 -23 -23 -34 0 -26 33 -46 103 -60 31 -6 57 -14 57 -16 0 -3 -28 -18 -62 -34 -263 -123 -580 21 -662 299 -9 31 -16 91 -16 138 0 138 49 253 148 345 104 97 203 133 351 126 114 -6 183 -29 256 -88 69 -55 93 -66 113 -53 30 18 26 55 -10 90 -112 108 -308 167 -468 143z"/>
 <path d="M1042 888 c-7 -7 -12 -42 -12 -85 l0 -73 -73 0 c-77 0 -97 -9 -97 -45 0 -36 20 -45 97 -45 l73 0 0 -73 c0 -75 9 -97 41 -97 35 0 49 28 49 101 l0 69 68 0 c72 0 92 10 92 45 0 35 -20 45 -92 45 l-68 0 0 68 c0 54 -4 72 -18 85 -22 20 -43 22 -60 5z"/>
 </g>

</svg>